inDegrees=yes
name=ik_lifting_orientations
DataType=double
version=3
OpenSimVersion=4.5-2024-01-10-34fd6af
endheader
time	pelvis_tilt	pelvis_list	pelvis_rotation	pelvis_tx	pelvis_ty	pelvis_tz	hip_flexion_r	hip_adduction_r	hip_rotation_r	knee_angle_r	knee_angle_r_beta	ankle_angle_r	subtalar_angle_r	mtp_angle_r	hip_flexion_l	hip_adduction_l	hip_rotation_l	knee_angle_l	knee_angle_l_beta	ankle_angle_l	subtalar_angle_l	mtp_angle_l	lumbar_extension	lumbar_bending	lumbar_rotation	arm_flex_r	arm_add_r	arm_rot_r	elbow_flex_r	pro_sup_r	wrist_flex_r	wrist_dev_r	arm_flex_l	arm_add_l	arm_rot_l	elbow_flex_l	pro_sup_l	wrist_flex_l	wrist_dev_l
1.45	-0.6398586467868618	29.36590696747311	-98.52379301496738	0	0.9399999998679526	0	45.00081953478907	-10.16041946222841	0	60.22012586371538	1.051039472287227	-5.03745808322573	0	0	45.00081953478907	-10.16041946222841	0	60.22012586371538	1.051039472287227	-5.03745808322573	0	0	-42.4350924786163	-4.264647266393244	1.166072548786373	67.96410640059096	-1.097533243606718	4.05245454045554	27.34284522545193	1.346071905516965	0	0	0	-11.27178502558176	0	88.68431652086544	1.346071905516965	0	0
1.46	-0.5940088627316504	28.97388861632895	-98.66203375576089	0	0.9399999998679526	0	45.00081936340199	-10.16030263824618	0	60.2200896457892	1.051038840165167	-5.037422524227863	0	0	45.00081936340199	-10.16030263824618	0	60.2200896457892	1.051038840165167	-5.037422524227863	0	0	-42.58729604526337	-4.333052771212416	1.180939073587549	67.6163698907551	-1.096937393074083	3.874532912786426	28.01798542746103	1.345875758950571	0	0	0	-11.27218553269964	0	88.68450821220858	1.345875758950571	0	0
1.47	-0.5785138536177697	28.5649803600149	-98.67356683723558	0	0.9399999998679526	0	45.00081909624475	-10.1601198512651	0	60.22003338675617	1.051037858259807	-5.037366856274293	0	0	45.00081909624475	-10.1601198512651	0	60.22003338675617	1.051037858259807	-5.037366856274293	0	0	-42.55106727549132	-4.28022939769263	1.153029399961396	67.07435647018941	-1.188008246077985	3.867834227610017	28.84152645133399	1.345570400463502	0	0	0	-11.27280834344657	0	88.68480663484394	1.345570400463502	0	0
1.48	-0.5704621681181468	27.98880552653619	-98.62862748548602	0	0.9399999998679526	0	45.00081891802596	-10.15999837082014	0	60.219995758846	1.051037201528884	-5.037329890835581	0	0	45.00081891802596	-10.15999837082014	0	60.219995758846	1.051037201528884	-5.037329890835581	0	0	-42.70012470569354	-4.261829460837792	0.9682925257210667	66.73485484272324	-1.15676211953273	4.095025417350342	29.46195214011315	1.345366482495193	0	0	0	-11.27322462193058	0	88.68500592106979	1.345366482495193	0	0
1.49	-0.5533944843826067	27.35582236501997	-98.52665101850592	0	0.9399999998679526	0	45.00081877131966	-10.1598986294681	0	60.219964731219	1.051036659994634	-5.037299559208198	0	0	45.00081877131966	-10.1598986294681	0	60.219964731219	1.051036659994634	-5.037299559208198	0	0	-42.84341514574034	-4.162919064936364	0.7747862899538849	66.39649918803765	-1.232682020013144	4.407735142673192	29.92568395715042	1.345198502557176	0	0	0	-11.27356773631245	0	88.68517008555821	1.345198502557176	0	0
1.5	-0.6604355396801133	26.75185537407117	-98.11241291011817	0	0.9399999998679526	0	45.00081848526946	-10.15970340883849	0	60.21990444529329	1.051035607806737	-5.037240157238164	0	0	45.00081848526946	-10.15970340883849	0	60.21990444529329	1.051035607806737	-5.037240157238164	0	0	-42.89819907259763	-3.847761476023083	0.5437412452438044	65.96561024852187	-1.202426749098522	4.54066689616938	30.20297242785033	1.344871397647218	0	0	0	-11.2742351310712	0	88.68548976068021	1.344871397647218	0	0
1.51	-0.6946291746812595	26.09588177596083	-97.76201290042582	0	0.9399999998679526	0	45.00081832334721	-10.1595932971196	0	60.21987023777317	1.051035010772882	-5.037206680669111	0	0	45.00081832334721	-10.1595932971196	0	60.21987023777317	1.051035010772882	-5.037206680669111	0	0	-42.97136455042055	-3.557797263325457	0.3329538930261995	65.57418347587273	-1.336214924077945	4.797930731203359	30.70850497393691	1.34468605353081	0	-1.077613842297402e-35	0	-11.27461359815922	0	88.68567089493986	1.34468605353081	0	-1.077613842297402e-35
1.52	-0.7197295480519561	25.35576753242964	-97.43741046862938	0	0.9399999998679526	0	45.00081814143476	-10.15946952706079	0	60.21983183769834	1.051034340565143	-5.037169052490124	0	0	45.00081814143476	-10.15946952706079	0	60.21983183769834	1.051034340565143	-5.037169052490124	0	0	-43.05389026632253	-3.201028774490401	0.05118328769067784	65.22207966268304	-1.4437507969126	5.177781488627531	31.16351139257414	1.344477881880723	0	0	0	-11.27503857773757	0	88.68587433823245	1.344477881880723	0	0
1.53	-0.718007967643241	24.55509827277047	-97.2340166294299	0	0.9399999998679526	0	45.00081792034135	-10.15931902025573	0	60.21978520729211	1.051033526711023	-5.037123297929654	0	0	45.00081792034135	-10.15931902025573	0	60.21978520729211	1.051033526711023	-5.037123297929654	0	0	-43.11013935979798	-3.008996013349459	-0.2051111559895241	64.72477086898427	-1.414951938817848	5.417807780470157	31.61348597733253	1.344224944133378	0	0	0	-11.27555481470786	0	88.68612153081391	1.344224944133378	0	0
1.54	-0.731336864480005	23.73915667058823	-96.85701073899706	0	0.9399999998679526	0	45.00081764656477	-10.15913251676489	0	60.21972753109785	1.051032520071533	-5.037066602821372	0	0	45.00081764656477	-10.15913251676489	0	60.21972753109785	1.051032520071533	-5.037066602821372	0	0	-42.99337905476349	-2.677945706142784	-0.5105264093789403	64.05221240189687	-1.456690399278404	5.751957607976395	32.14988968616574	1.34391185072067	0	0	0	-11.27619361208946	0	88.6864275126951	1.34391185072067	0	0
1.55	-0.733899635314907	22.85555553148837	-96.51199485316431	0	0.9399999998679526	0	45.00081744235441	-10.15899380400089	0	60.21968443298277	1.051031767867524	-5.037024466132898	0	0	45.00081744235441	-10.15899380400089	0	60.21968443298277	1.051031767867524	-5.037024466132898	0	0	-42.96617234093934	-2.435587215332519	-0.9220316185985205	63.44914192403078	-1.492684642910617	6.319893050357135	32.57957255056559	1.343678137212095	0	0	0	-11.27667074769062	0	88.68665591769691	1.343678137212095	0	0
1.56	-0.7855214223165257	21.98785783281326	-95.98138598343202	0	0.9399999998679526	0	45.00081313128727	-10.15698018374221	0	60.21853384151557	1.051011686258076	-5.036463099777123	0	0	45.00081313128727	-10.15698018374221	0	60.21853384151557	1.051011686258076	-5.036463099777123	0	0	-42.89212165814571	-1.998165487706309	-1.431016497481687	62.91961284283664	-1.644446461908919	6.835247406225541	33.03512610518469	1.338247525145186	0	0	0	-11.28862601729605	0	88.69196320190041	1.338247525145186	0	0
